<svg width="27" height="27" viewBox="0 0 27 27" fill="none" xmlns="http://www.w3.org/2000/svg">
<path d="M25.8395 0.411769C25.6478 0.220099 25.4048 0.0879278 25.1397 0.0311684C24.8746 -0.025591 24.5988 -0.00451905 24.3454 0.0918474L0.906123 8.96353H0.901436C0.631179 9.06747 0.399597 9.25231 0.23832 9.4928C0.0770434 9.73328 -0.00606545 10.0177 0.000344789 10.3072C0.00675503 10.5967 0.102372 10.8771 0.274136 11.1102C0.4459 11.3433 0.685436 11.5177 0.96003 11.6096L0.984053 11.6172L9.02898 15.0526C9.18589 15.1002 9.35255 15.1059 9.51233 15.069C9.6721 15.032 9.8194 14.9539 9.93952 14.8422L22.8512 2.81118C22.8897 2.77271 22.9354 2.74219 22.9857 2.72137C23.0359 2.70055 23.0898 2.68983 23.1442 2.68983C23.1986 2.68983 23.2525 2.70055 23.3028 2.72137C23.353 2.74219 23.3987 2.77271 23.4372 2.81118C23.4757 2.84966 23.5062 2.89533 23.527 2.9456C23.5478 2.99587 23.5585 3.04974 23.5585 3.10415C23.5585 3.15856 23.5478 3.21244 23.527 3.26271C23.5062 3.31297 23.4757 3.35865 23.4372 3.39712L11.4055 16.303C11.2939 16.4231 11.2157 16.5704 11.1788 16.7302C11.1419 16.89 11.1476 17.0566 11.1952 17.2135L14.6317 25.2631C14.6352 25.2749 14.6387 25.2854 14.6428 25.2965C14.8303 25.8397 15.305 26.2229 15.8786 26.2487H15.9372C16.2268 26.2503 16.5102 26.1648 16.7505 26.0033C16.9908 25.8417 17.177 25.6116 17.2848 25.3428L26.1553 1.91001C26.2531 1.65646 26.2753 1.38003 26.2192 1.11414C26.1632 0.848247 26.0313 0.604289 25.8395 0.411769Z" fill="white"/>
</svg>
