<svg width="60" height="60" viewBox="0 0 60 60" fill="none" xmlns="http://www.w3.org/2000/svg">
<path d="M53.3333 21.6667H40C39.1159 21.6667 38.2681 22.0179 37.643 22.6431C37.0178 23.2682 36.6667 24.116 36.6667 25.0001V50.0001C36.6667 50.8841 37.0178 51.732 37.643 52.3571C38.2681 52.9822 39.1159 53.3334 40 53.3334H53.3333C54.2174 53.3334 55.0652 52.9822 55.6904 52.3571C56.3155 51.732 56.6667 50.8841 56.6667 50.0001V25.0001C56.6667 24.116 56.3155 23.2682 55.6904 22.6431C55.0652 22.0179 54.2174 21.6667 53.3333 21.6667ZM53.3333 25.0001V43.3334H40V25.0001H53.3333ZM40 50.0001V46.0001H53.3333V50.0001H40Z" fill="white"/>
<path d="M33.3333 36.6667H6.66666V10.0001H46.6667V18.3334H50V10.0001C50 9.11603 49.6488 8.26818 49.0237 7.64306C48.3986 7.01794 47.5507 6.66675 46.6667 6.66675H6.66666C5.78261 6.66675 4.93476 7.01794 4.30964 7.64306C3.68452 8.26818 3.33333 9.11603 3.33333 10.0001V36.6667C3.33333 37.5508 3.68452 38.3986 4.30964 39.0238C4.93476 39.6489 5.78261 40.0001 6.66666 40.0001H33.3333V36.6667Z" fill="white"/>
<path d="M33.3333 43.3334H15C14.558 43.3334 14.1341 43.509 13.8215 43.8215C13.5089 44.1341 13.3333 44.558 13.3333 45C13.3333 45.4421 13.5089 45.866 13.8215 46.1786C14.1341 46.4911 14.558 46.6667 15 46.6667H33.3333V43.3334Z" fill="white"/>
</svg>
