<svg width="60" height="60" viewBox="0 0 60 60" fill="none" xmlns="http://www.w3.org/2000/svg">
<path d="M53.5 46.874C53.4967 44.1237 52.4028 41.4867 50.458 39.542C48.7501 37.8341 46.5085 36.7819 44.125 36.5488V34.7949C46.973 35.0338 49.6583 36.2696 51.6943 38.3057C53.9676 40.5789 55.2463 43.6611 55.25 46.876V55.25H53.5V46.874Z" fill="#EE4F3C" stroke="#EE4F3C" stroke-width="2"/>
<path d="M38.5 46.874C38.4967 44.1237 37.4028 41.4867 35.458 39.542C33.5133 37.5972 30.8763 36.5033 28.126 36.5H16.874C14.1237 36.5033 11.4867 37.5972 9.54199 39.542C7.59724 41.4867 6.50329 44.1237 6.5 46.874V55.25H4.75V46.876C4.75371 43.6611 6.0324 40.5789 8.30566 38.3057C10.437 36.1744 13.2793 34.9174 16.2754 34.7656L16.876 34.75H28.124L28.7246 34.7656C31.7207 34.9174 34.563 36.1744 36.6943 38.3057C38.9676 40.5789 40.2463 43.6611 40.25 46.876V55.25H38.5V46.874Z" fill="#EE4F3C" stroke="#EE4F3C" stroke-width="2"/>
<path d="M38.5 4.79395C41.3495 5.0297 44.0363 6.26483 46.0732 8.30176C48.3471 10.5756 49.625 13.6593 49.625 16.875C49.625 20.0907 48.3471 23.1744 46.0732 25.4482C44.0363 27.4852 41.3494 28.7193 38.5 28.9551V27.2002C40.8845 26.9693 43.1274 25.9195 44.8359 24.2109C46.7816 22.2652 47.875 19.6266 47.875 16.875C47.875 14.1234 46.7816 11.4848 44.8359 9.53906C43.1274 7.83052 40.8845 6.77967 38.5 6.54883V4.79395Z" fill="#EE4F3C" stroke="#EE4F3C" stroke-width="2"/>
<path d="M22.5 4.75C25.7157 4.75 28.7994 6.02788 31.0732 8.30176C33.3471 10.5756 34.625 13.6593 34.625 16.875C34.625 19.273 33.9143 21.6174 32.582 23.6113C31.2497 25.6053 29.3552 27.1594 27.1396 28.0771C24.9242 28.9947 22.4866 29.2344 20.1348 28.7666C17.7827 28.2988 15.6225 27.144 13.9268 25.4482C12.231 23.7525 11.0762 21.5923 10.6084 19.2402C10.1406 16.8884 10.3803 14.4508 11.2979 12.2354C12.2156 10.0198 13.7697 8.12528 15.7637 6.79297C17.7576 5.46074 20.102 4.75 22.5 4.75ZM22.5 6.5C19.7484 6.5 17.1098 7.59337 15.1641 9.53906C13.2184 11.4848 12.125 14.1234 12.125 16.875C12.125 18.9268 12.7332 20.9326 13.873 22.6387C15.013 24.3447 16.6337 25.6747 18.5293 26.46C20.4251 27.2452 22.5119 27.4511 24.5244 27.0508C26.5368 26.6504 28.385 25.6618 29.8359 24.2109C31.2868 22.76 32.2754 20.9118 32.6758 18.8994C33.0761 16.8869 32.8702 14.8001 32.085 12.9043C31.2997 11.0087 29.9697 9.38798 28.2637 8.24805C26.5576 7.10823 24.5518 6.5 22.5 6.5Z" fill="#EE4F3C" stroke="#EE4F3C" stroke-width="2"/>
</svg>
