<svg width="60" height="60" viewBox="0 0 60 60" fill="none" xmlns="http://www.w3.org/2000/svg">
<path d="M27 11.9995C24.711 11.9995 22.575 12.6385 20.754 13.7515C20.5658 12.7447 20.2227 11.7732 19.737 10.8715C22.0209 9.60759 24.5951 8.96156 27.2051 8.99725C29.8152 9.03294 32.3707 9.74912 34.6192 11.075C36.8676 12.4009 38.7312 14.2905 40.0257 16.5572C41.3201 18.8239 42.0007 21.3892 42 23.9995H49.503C50.696 24.0003 51.8398 24.4747 52.6831 25.3186C53.5263 26.1624 54 27.3065 54 28.4995V46.4995C54 47.693 53.5259 48.8376 52.682 49.6815C51.8381 50.5254 50.6935 50.9995 49.5 50.9995H31.5C30.3066 50.9995 29.162 50.5254 28.318 49.6815C27.4741 48.8376 27 47.693 27 46.4995V38.9995C24.9132 39.0021 22.8489 38.5678 20.94 37.7245C20.979 36.7045 21 35.6335 21 34.4995V34.3945C22.764 35.4145 24.813 35.9995 27 35.9995V28.4995C27 27.306 27.4741 26.1614 28.318 25.3175C29.162 24.4736 30.3066 23.9995 31.5 23.9995H39C39 20.8169 37.7357 17.7646 35.4853 15.5142C33.2349 13.2638 30.1826 11.9995 27 11.9995ZM41.7 26.9995C41.1099 29.8812 39.6866 32.5262 37.6066 34.6061C35.5267 36.6861 32.8817 38.1094 30 38.6995V46.4995C30 46.8973 30.1581 47.2788 30.4394 47.5602C30.7207 47.8415 31.1022 47.9995 31.5 47.9995H49.5C49.8978 47.9995 50.2794 47.8415 50.5607 47.5602C50.842 47.2788 51 46.8973 51 46.4995V28.4995C51 28.1017 50.842 27.7201 50.5607 27.4388C50.2794 27.1575 49.8978 26.9995 49.5 26.9995H41.7ZM38.622 26.9995H31.5C31.1022 26.9995 30.7207 27.1575 30.4394 27.4388C30.1581 27.7201 30 28.1017 30 28.4995V35.6215C32.0755 35.0838 33.9693 34.0008 35.4853 32.4848C37.0014 30.9688 38.0843 29.0749 38.622 26.9995Z" fill="#EE4F3C"/>
<path d="M13.74 6.37488C13.9895 6.59231 14.1601 6.88615 14.2252 7.21063C14.2903 7.53512 14.2463 7.87202 14.1 8.16888C14.0746 8.25665 14.0615 8.34751 14.061 8.43888C14.061 8.62788 14.109 8.98788 14.562 9.43788C14.781 9.65688 14.949 9.81288 15.132 9.98388C15.282 10.1219 15.441 10.2659 15.642 10.4639C16.032 10.8359 16.443 11.2739 16.812 11.8229C17.577 12.9719 18 14.4089 18 16.4999C18 19.0589 17.052 21.2399 15.573 22.5779L15.765 22.7999C16.605 23.8319 17.094 25.1699 17.4 26.4899C18 29.0999 18 32.2379 18 34.4249V34.4999C18 42.8609 16.863 47.6039 15.612 50.3159C14.982 51.6809 14.313 52.5509 13.734 53.0969C13.4986 53.3227 13.239 53.5219 12.96 53.6909C12.8322 53.7678 12.6989 53.835 12.561 53.8919C12.561 53.8919 12.222 53.9999 12 53.9999C11.778 53.9999 11.439 53.8919 11.439 53.8919C11.2996 53.8383 11.166 53.771 11.04 53.6909C10.761 53.5219 10.5014 53.3227 10.266 53.0969C9.687 52.5479 9.018 51.6809 8.388 50.3159C7.137 47.6039 6 42.8609 6 34.4999V34.4249C6 32.2349 6 29.0999 6.6 26.4899C6.906 25.1699 7.395 23.8319 8.235 22.7999C8.295 22.7249 8.361 22.6499 8.427 22.5779C6.948 21.2399 6 19.0589 6 16.4999C6 15.5219 6.261 14.3549 6.621 13.2779C6.981 12.1979 7.485 11.0819 8.067 10.1819C8.76 9.01188 9.735 8.03088 10.491 7.37088C10.9055 7.00637 11.338 6.66293 11.787 6.34188L11.877 6.28188L11.904 6.26088L11.913 6.25488L11.919 6.25188C12.1941 6.06851 12.5221 5.98116 12.8519 6.0034C13.1818 6.02564 13.495 6.15624 13.743 6.37488H13.74ZM12.009 20.9999C13.158 20.9969 15 19.7099 15 16.4999C15 14.8409 14.673 14.0279 14.313 13.4879C14.0941 13.1725 13.8416 12.8818 13.56 12.6209L13.188 12.2729C12.945 12.0449 12.66 11.7809 12.438 11.5619C12.1099 11.2372 11.8282 10.8687 11.601 10.4669C11.2191 10.8684 10.8831 11.3111 10.599 11.7869C10.179 12.4319 9.771 13.3169 9.468 14.2289C9.156 15.1589 9 15.9809 9 16.4999C9 19.7159 10.845 20.9999 12 20.9999H12.006H12.009ZM10.56 24.6959C10.137 25.2149 9.78 26.0429 9.525 27.1649C9.006 29.4089 9 32.2289 9 34.4999C9 42.6389 10.113 46.8959 11.112 49.0589C11.442 49.7699 11.751 50.2439 12 50.5589C12.249 50.2439 12.561 49.7699 12.888 49.0589C13.887 46.8959 15 42.6389 15 34.4999C15 32.2289 14.994 29.4089 14.475 27.1649C14.217 26.0429 13.863 25.2149 13.44 24.6959C13.2745 24.4717 13.0569 24.2911 12.806 24.1699C12.5552 24.0486 12.2785 23.9903 12 23.9999H11.994C11.7165 23.991 11.4409 24.0497 11.1911 24.1709C10.9413 24.2922 10.7247 24.4723 10.56 24.6959Z" fill="#EE4F3C"/>
</svg>
