<svg width="52" height="52" viewBox="0 0 52 52" fill="none" xmlns="http://www.w3.org/2000/svg">
<g clip-path="url(#clip0_1_231)">
<path d="M35.4161 14.0415L34.454 14.7933L34.4153 14.7438L23.6662 23.1445L27.3999 27.9218L34.1497 22.6467C35.3384 26.1973 34.2525 30.2616 31.1335 32.6992C27.176 35.792 21.4598 35.0911 18.367 31.1336C15.2741 27.1762 15.9751 21.4599 19.9326 18.3671C21.7593 16.9394 23.9598 16.3297 26.105 16.4665L26.843 10.4481C23.1562 10.1272 19.3448 11.1311 16.1989 13.5897C9.60317 18.7445 8.43485 28.2715 13.5896 34.8672C18.7444 41.463 28.2714 42.6313 34.8671 37.4766C41.4629 32.3218 42.6312 22.7948 37.4764 16.199C36.8506 15.3982 36.1573 14.6809 35.4161 14.0415Z" fill="#FFC107"/>
<path d="M10.6221 28.2318L16.7952 28.0428C15.8025 24.5843 16.9234 20.7186 19.9326 18.3669C21.7593 16.9392 23.9598 16.3295 26.105 16.4663L26.843 10.4479C23.1563 10.127 19.3448 11.1309 16.1989 13.5895C11.6115 17.1748 9.65722 22.8739 10.6221 28.2318Z" fill="#FF3D00"/>
<path d="M34.8672 37.4765C37.9521 35.0655 39.8326 31.6942 40.4515 28.1179L34.3104 27.8788C33.8076 29.79 32.6916 31.4834 31.1335 32.6991C28.027 35.1269 23.8413 35.2075 20.6872 33.2198L19.1376 39.2645C24.1371 41.5875 30.2254 41.1042 34.8672 37.4765Z" fill="#4CAF50"/>
<path d="M35.4161 14.0413L34.454 14.7932L34.4153 14.7436L23.6662 23.1443L27.3998 27.9217L34.1497 22.6465C34.713 24.3382 34.7684 26.1579 34.309 27.8807L34.3099 27.8782L40.451 28.1172C40.3752 28.5593 42.1435 22.1706 37.4764 16.1989C36.8506 15.3981 36.1573 14.6808 35.4161 14.0413Z" fill="#1976D2"/>
</g>
<defs>
<clipPath id="clip0_1_231">
<rect width="36.3797" height="36.3797" fill="white" transform="translate(0 22.4019) rotate(-38.0086)"/>
</clipPath>
</defs>
</svg>
