<svg width="56" height="56" viewBox="0 0 56 56" fill="none" xmlns="http://www.w3.org/2000/svg">
<g clip-path="url(#clip0_1_246)">
<path d="M35.6498 41.4368L27.7525 29.1531C28.1307 28.9555 28.485 28.7515 28.8467 28.5189C30.5612 27.4166 31.8864 25.9306 32.7382 24.2476L41.4071 37.7314C42.148 38.8838 42.4217 39.9105 42.254 40.8208C42.0873 41.7264 41.5656 42.4621 40.709 43.0128C39.8679 43.5536 39.0171 43.7003 38.094 43.4695C37.2008 43.2453 36.379 42.5709 35.6498 41.4368ZM16.7571 11.9797C19.5201 8.43397 23.6248 5.89015 28.328 6.49631C29.2283 6.64859 30.2942 6.88268 31.0452 7.48369C31.9774 8.25554 29.8999 8.07537 29.6246 8.06616C28.2209 8.07102 26.8858 8.17642 25.5374 8.52617C18.3776 10.5832 14.7954 17.487 14.5169 24.811C14.4788 27.9939 15.0309 30.9637 15.9045 34.0577C16.0025 34.395 16.1708 34.8079 16.1748 35.156C16.2007 35.5416 15.6154 34.4338 15.5937 34.4002C15.0238 33.2548 14.5838 32.0774 14.1957 30.8666C12.2826 24.3097 12.9331 17.4103 16.7585 11.9788L16.7571 11.9797ZM30.0282 17.4343C30.3856 17.9903 30.6301 18.6112 30.7476 19.2617C30.865 19.9121 30.8532 20.5794 30.7129 21.2253C30.5725 21.8712 30.3062 22.4831 29.9294 23.0261C29.5525 23.5692 29.0723 24.0326 28.5163 24.3901C27.9603 24.7475 27.3394 24.992 26.6889 25.1095C26.0385 25.2269 25.3712 25.2151 24.7253 25.0747C24.0794 24.9344 23.4675 24.6681 22.9245 24.2912C22.3815 23.9144 21.918 23.4342 21.5605 22.8782C21.2031 22.3222 20.9586 21.7013 20.8412 21.0508C20.7237 20.4004 20.7355 19.7331 20.8759 19.0872C21.0163 18.4413 21.2825 17.8294 21.6594 17.2864C22.0362 16.7433 22.5164 16.2799 23.0724 15.9224C23.6284 15.565 24.2493 15.3205 24.8998 15.203C25.5503 15.0856 26.2175 15.0974 26.8634 15.2378C27.5093 15.3781 28.1212 15.6444 28.6643 16.0213C29.2073 16.3981 29.6707 16.8783 30.0282 17.4343Z" fill="#095CF3"/>
</g>
<defs>
<clipPath id="clip0_1_246">
<rect width="40" height="40" fill="white" transform="translate(0 21.6316) rotate(-32.7375)"/>
</clipPath>
</defs>
</svg>
