<svg width="173" height="42" viewBox="0 0 173 42" fill="none" xmlns="http://www.w3.org/2000/svg">
<path d="M19.6045 0.756836V1.61133C18.0745 2.01823 17.0817 2.47396 16.626 2.97852C16.1865 3.4668 15.9668 4.57357 15.9668 6.29883V32.2021C15.9668 35.0667 15.2425 37.2965 13.7939 38.8916C12.3454 40.5029 10.3027 41.3086 7.66602 41.3086C5.61523 41.3086 3.88184 40.7471 2.46582 39.624C1.0498 38.501 0.227865 37.028 0 35.2051H0.854492C1.83105 37.0768 3.27962 38.0127 5.2002 38.0127C6.74642 38.0127 7.84505 37.4837 8.49609 36.4258C9.16341 35.3841 9.49707 33.5938 9.49707 31.0547V5.81055C9.49707 4.41081 9.25293 3.44238 8.76465 2.90527C8.29264 2.36816 7.29167 1.93685 5.76172 1.61133V0.756836H19.6045ZM78.8555 30.0049H61.2285V29.1504C62.7585 28.8411 63.7513 28.4017 64.207 27.832C64.679 27.2461 64.915 26.3184 64.915 25.0488V5.61523C64.915 4.2806 64.6546 3.33659 64.1338 2.7832C63.6292 2.21354 62.6608 1.82292 61.2285 1.61133V0.756836H76.6582C79.8158 0.756836 82.2816 1.35905 84.0557 2.56348C85.8298 3.75163 86.7168 5.4362 86.7168 7.61719C86.7168 11.0026 84.5521 13.2975 80.2227 14.502V14.5996C85.7565 15.6087 88.5234 18.1803 88.5234 22.3145C88.5234 24.6094 87.6445 26.4648 85.8867 27.8809C84.1289 29.2969 81.7852 30.0049 78.8555 30.0049ZM71.3604 2.41699V14.1602H73.7285C75.6003 14.1602 77.0651 13.6393 78.123 12.5977C79.181 11.556 79.71 10.1074 79.71 8.25195C79.71 4.36198 77.5615 2.41699 73.2646 2.41699H71.3604ZM74.8271 15.7959H71.3604V24.7559C71.3604 26.0579 71.6859 26.9857 72.3369 27.5391C72.988 28.0762 74.0785 28.3447 75.6084 28.3447C77.4476 28.3447 78.888 27.7995 79.9297 26.709C80.9876 25.6022 81.5166 24.0804 81.5166 22.1436C81.5166 20.223 80.9225 18.6849 79.7344 17.5293C78.5625 16.3737 76.9268 15.7959 74.8271 15.7959ZM92.8682 0.756836H107.883C110.975 0.756836 113.409 1.47298 115.183 2.90527C116.973 4.33757 117.868 6.20117 117.868 8.49609C117.868 10.9701 116.875 12.9964 114.89 14.5752C112.92 16.154 110.202 16.9434 106.735 16.9434C105.531 16.9434 104.294 16.862 103.024 16.6992V25.0488C103.024 26.3672 103.285 27.3193 103.806 27.9053C104.343 28.4912 105.303 28.9062 106.687 29.1504V30.0049H92.8682V29.1504C94.3493 28.8574 95.334 28.418 95.8223 27.832C96.3268 27.2298 96.5791 26.1882 96.5791 24.707V5.61523C96.5791 4.2806 96.3431 3.361 95.8711 2.85645C95.3991 2.35189 94.3981 1.93685 92.8682 1.61133V0.756836ZM105.49 2.41699H103.024V14.9658C103.773 15.1937 104.489 15.3076 105.173 15.3076C106.963 15.3076 108.363 14.738 109.372 13.5986C110.381 12.443 110.886 10.8317 110.886 8.76465C110.886 6.87663 110.389 5.34668 109.396 4.1748C108.404 3.00293 107.102 2.41699 105.49 2.41699ZM135.03 0.756836V1.61133C133.468 2.00195 132.459 2.44954 132.003 2.9541C131.547 3.45866 131.319 4.30501 131.319 5.49316V25.1953C131.319 26.416 131.637 27.2461 132.271 27.6855C132.923 28.125 134.143 28.3447 135.934 28.3447C137.805 28.3447 139.254 27.9378 140.279 27.124C141.321 26.2939 142.403 24.7233 143.526 22.4121H144.381L143.526 30.0049H121.188V29.1504C122.75 28.7598 123.751 28.2959 124.19 27.7588C124.646 27.2217 124.874 26.1068 124.874 24.4141V5.71289C124.874 4.39453 124.63 3.47493 124.142 2.9541C123.67 2.41699 122.685 1.9694 121.188 1.61133V0.756836H135.03ZM168.208 4.76074L161.299 14.5996V25.0488C161.299 26.3509 161.559 27.2949 162.08 27.8809C162.601 28.4668 163.577 28.89 165.01 29.1504V30.0049H151.143V29.1504C152.493 28.9551 153.446 28.54 153.999 27.9053C154.569 27.2542 154.854 26.237 154.854 24.8535V16.3086L147.261 4.66309C146.512 3.54004 145.853 2.77507 145.283 2.36816C144.73 1.96126 144.006 1.70898 143.11 1.61133V0.756836H156.44V1.61133C155.024 1.67643 154.316 2.14844 154.316 3.02734C154.316 3.58073 154.593 4.28874 155.146 5.15137L160.2 12.9639L164.644 6.54297C165.343 5.53385 165.693 4.63867 165.693 3.85742C165.693 2.7181 164.945 1.9694 163.447 1.61133V0.756836H172.505V1.61133C170.991 1.75781 169.559 2.80762 168.208 4.76074Z" fill="#232443"/>
<path d="M56.542 15.4053C56.542 19.8812 55.0446 23.5596 52.0498 26.4404C49.055 29.3213 45.2301 30.7617 40.5752 30.7617C35.9365 30.7617 32.1279 29.3213 29.1494 26.4404C26.1709 23.5596 24.6816 19.8812 24.6816 15.4053C24.6816 10.9294 26.1709 7.24284 29.1494 4.3457C32.1442 1.44857 35.9528 0 40.5752 0C45.2301 0 49.055 1.44857 52.0498 4.3457C55.0446 7.24284 56.542 10.9294 56.542 15.4053ZM49.5352 15.6006C49.5352 11.0596 48.7702 7.60091 47.2402 5.22461C45.7266 2.84831 43.5049 1.66016 40.5752 1.66016C37.6781 1.66016 35.4727 2.84831 33.959 5.22461C32.4453 7.60091 31.6885 11.0758 31.6885 15.6494C31.6885 19.8975 32.4535 23.2015 33.9834 25.5615C35.5133 27.9215 37.7106 29.1016 40.5752 29.1016C43.391 29.1016 45.5882 27.9297 47.167 25.5859C48.7458 23.2422 49.5352 19.9137 49.5352 15.6006Z" fill="#EE4F3C"/>
</svg>
