<svg width="31" height="35" viewBox="0 0 31 35" fill="none" xmlns="http://www.w3.org/2000/svg">
<g clip-path="url(#clip0_1_238)">
<path d="M26.7565 6.70525C25.7271 4.8795 23.4202 3.70544 20.2917 3.04919L11.2119 1.14457C10.9024 1.07965 10.5799 1.12728 10.3023 1.2789C10.0247 1.43052 9.81037 1.67618 9.69773 1.97171L0.887356 25.1565C0.713027 25.6136 0.989337 26.1186 1.46857 26.2191L7.07412 27.3949L10.355 18.7608L10.2526 19.0313C10.4853 18.4211 11.1228 18.0688 11.762 18.2029L14.4258 18.7617C19.6587 19.8594 24.202 18.5934 26.6887 12.6959C26.7624 12.5215 26.8303 12.351 26.8932 12.1836C26.7589 12.0719 26.7589 12.0719 26.8932 12.1836C27.7263 9.98581 27.6919 8.36361 26.7565 6.70525Z" fill="#27346A"/>
<path d="M14.6902 8.76918C14.8587 8.72836 15.0343 8.7257 15.204 8.76141L22.3224 10.2546C23.1653 10.4314 23.94 10.6512 24.6342 10.9175C24.8285 10.9918 25.0205 11.072 25.2099 11.1581C25.4784 11.2793 25.7408 11.4137 25.9961 11.5609C26.3245 11.753 26.6247 11.9593 26.8933 12.1836C27.7265 9.98494 27.6919 8.36361 26.7565 6.70525C25.7263 4.87933 23.4202 3.70544 20.2917 3.04919L11.2112 1.1444C10.5718 1.01029 9.9303 1.36165 9.69773 1.97171L0.88754 25.1557C0.713047 25.6135 0.98948 26.1179 1.46794 26.2182L7.07426 27.3942L13.8802 9.48518C13.9471 9.30915 14.0558 9.15201 14.1969 9.02729C14.338 8.90257 14.5073 8.81399 14.6902 8.76918Z" fill="#27346A"/>
<path d="M26.6887 12.6958C24.2022 18.5924 19.6588 19.8593 14.4258 18.7616L11.7613 18.2027C11.1221 18.0686 10.4845 18.4209 10.2528 19.0312L6.17244 29.7665C6.0202 30.1666 6.26155 30.6087 6.6802 30.6965L11.4055 31.6877C11.6762 31.7444 11.9583 31.7027 12.201 31.57C12.4436 31.4373 12.631 31.2224 12.7294 30.9639L12.8259 30.7328L14.9005 25.2752L15.0233 24.9753C15.1217 24.7168 15.3091 24.502 15.5517 24.3693C15.7944 24.2366 16.0764 24.1949 16.3471 24.2515L17.0543 24.3999C21.6318 25.3601 25.6061 24.2523 27.7817 19.0936C28.6904 16.9377 28.8578 15.0137 27.9777 13.453C27.7107 12.9802 27.3442 12.5591 26.8932 12.1835C26.8293 12.3516 26.7625 12.5214 26.6887 12.6958Z" fill="#2790C3"/>
<path d="M25.7453 11.4214C25.5701 11.3278 25.3918 11.24 25.2107 11.1583C25.0211 11.0729 24.8291 10.9929 24.6349 10.9185C23.9401 10.6512 23.166 10.4314 22.3223 10.2545L15.2048 8.76146C15.035 8.72545 14.8592 8.7284 14.6908 8.77011C14.5077 8.81463 14.3383 8.9031 14.1971 9.02786C14.056 9.15262 13.9474 9.3099 13.8807 9.48609L10.3558 18.761L10.2534 19.0314C10.4853 18.4211 11.1228 18.0688 11.7621 18.2029L14.4266 18.7619C19.6596 19.8595 24.2028 18.5935 26.6895 12.696C26.7632 12.5217 26.8301 12.3517 26.894 12.1838C26.6245 11.9602 26.3254 11.7531 25.9967 11.5618C25.9137 11.5136 25.8299 11.4668 25.7454 11.4214" fill="#1F264F"/>
</g>
<defs>
<clipPath id="clip0_1_238">
<rect width="25.3958" height="29.9591" fill="white" transform="translate(6.15051) rotate(11.8469)"/>
</clipPath>
</defs>
</svg>
