<svg width="43" height="43" viewBox="0 0 43 43" fill="none" xmlns="http://www.w3.org/2000/svg">
<g clip-path="url(#clip0_1_221)">
<path fill-rule="evenodd" clip-rule="evenodd" d="M10.4339 23.1494C10.3099 23.6135 10.0956 24.0487 9.80323 24.4299C9.51087 24.8112 9.1462 25.131 8.73008 25.3712C8.31396 25.6113 7.85456 25.767 7.37819 25.8294C6.90182 25.8918 6.41782 25.8596 5.9539 25.7347C5.49002 25.6106 5.05515 25.3963 4.67416 25.104C4.29317 24.8117 3.97352 24.4472 3.73351 24.0313C3.4935 23.6154 3.33782 23.1562 3.27538 22.6801C3.21294 22.204 3.24496 21.7202 3.36961 21.2565C3.49356 20.7924 3.70778 20.3574 4.00003 19.9762C4.29227 19.595 4.6568 19.2752 5.07277 19.0351C5.48874 18.7949 5.94797 18.6391 6.4242 18.5766C6.90044 18.5141 7.38432 18.5461 7.84817 18.6708L11.3817 19.6176L10.4353 23.1497L10.4339 23.1494ZM12.1999 23.6226C12.3239 23.1585 12.5381 22.7235 12.8303 22.3423C13.1226 21.9611 13.4871 21.6413 13.9031 21.4011C14.3191 21.161 14.7783 21.0052 15.2545 20.9427C15.7308 20.8802 16.2146 20.9122 16.6785 21.0369C17.1425 21.1608 17.5776 21.375 17.9588 21.6673C18.3399 21.9595 18.6598 22.3241 18.8999 22.74C19.1401 23.156 19.2959 23.6152 19.3584 24.0915C19.4209 24.5677 19.3889 25.0516 19.2642 25.5154L16.8977 34.3472C16.7738 34.8112 16.5596 35.2463 16.2673 35.6274C15.9751 36.0086 15.6105 36.3284 15.1946 36.5686C14.7786 36.8087 14.3194 36.9645 13.8431 37.027C13.3669 37.0895 12.883 37.0575 12.4192 36.9329C11.9551 36.8089 11.5201 36.5947 11.1389 36.3024C10.7577 36.0102 10.4379 35.6457 10.1977 35.2297C9.95758 34.8137 9.80179 34.3545 9.73929 33.8783C9.67679 33.402 9.70879 32.9181 9.83348 32.4543L12.1999 23.6226Z" fill="#E01E5A"/>
<path fill-rule="evenodd" clip-rule="evenodd" d="M19.5325 10.3857C19.0683 10.2617 18.6331 10.0474 18.2519 9.75506C17.8706 9.4627 17.5508 9.09803 17.3107 8.68191C17.0705 8.26579 16.9148 7.80639 16.8524 7.33002C16.7901 6.85365 16.8222 6.36965 16.9471 5.90573C17.0711 5.44169 17.2853 5.00663 17.5776 4.62545C17.8698 4.24428 18.2343 3.92446 18.6503 3.6843C19.0663 3.44414 19.5255 3.28836 20.0017 3.22585C20.478 3.16335 20.9619 3.19535 21.4257 3.32004C21.8898 3.44398 22.3248 3.65821 22.706 3.95045C23.0872 4.2427 23.407 4.60723 23.6471 5.0232C23.8873 5.43916 24.0431 5.8984 24.1056 6.37463C24.1681 6.85086 24.1361 7.33474 24.0114 7.7986L23.0642 11.3335L19.5335 10.3875L19.5325 10.3857ZM19.0521 12.1785C19.5161 12.3024 19.9512 12.5166 20.3324 12.8089C20.7136 13.1011 21.0334 13.4657 21.2735 13.8816C21.5137 14.2976 21.6695 14.7568 21.732 15.233C21.7945 15.7093 21.7625 16.1932 21.6378 16.657C21.5138 17.1211 21.2996 17.5561 21.0074 17.9373C20.7151 18.3185 20.3506 18.6383 19.9346 18.8784C19.5187 19.1186 19.0594 19.2744 18.5832 19.3369C18.107 19.3994 17.6231 19.3674 17.1592 19.2427L8.30082 16.8691C7.83689 16.7452 7.40193 16.531 7.02082 16.2389C6.63971 15.9468 6.31993 15.5824 6.07975 15.1666C5.83957 14.7508 5.68371 14.2917 5.62108 13.8156C5.55845 13.3395 5.59028 12.8557 5.71474 12.392C5.83869 11.9279 6.05291 11.4928 6.34516 11.1117C6.63741 10.7305 7.00194 10.4107 7.4179 10.1705C7.83387 9.93036 8.29311 9.77457 8.76934 9.71207C9.24557 9.64956 9.72945 9.68157 10.1933 9.80626L19.0531 12.1802L19.0521 12.1785Z" fill="#36C5F0"/>
<path fill-rule="evenodd" clip-rule="evenodd" d="M32.2623 19.5038C32.3863 19.0397 32.6006 18.6045 32.8929 18.2233C33.1853 17.842 33.55 17.5222 33.9661 17.282C34.3822 17.0419 34.8416 16.8862 35.318 16.8238C35.7943 16.7614 36.2783 16.7936 36.7423 16.9185C37.2063 17.0425 37.6414 17.2567 38.0225 17.5489C38.4037 17.8412 38.7235 18.2057 38.9637 18.6217C39.2038 19.0376 39.3596 19.4969 39.4221 19.9731C39.4846 20.4493 39.4526 20.9332 39.328 21.3971C39.204 21.8611 38.9898 22.2962 38.6975 22.6773C38.4053 23.0585 38.0408 23.3783 37.6248 23.6185C37.2088 23.8587 36.7496 24.0144 36.2734 24.0769C35.7971 24.1395 35.3132 24.1074 34.8494 23.9828L31.3159 23.036L32.2619 19.5052L32.2623 19.5038ZM30.4962 19.0306C30.3723 19.4947 30.1581 19.9297 29.8658 20.3109C29.5736 20.6921 29.209 21.0119 28.7931 21.252C28.3771 21.4922 27.9179 21.648 27.4416 21.7105C26.9654 21.773 26.4815 21.741 26.0177 21.6163C25.5535 21.4925 25.1182 21.2784 24.7369 20.9862C24.3555 20.694 24.0355 20.3294 23.7952 19.9134C23.5549 19.4974 23.399 19.038 23.3364 18.5617C23.2739 18.0854 23.3059 17.6013 23.4306 17.1374L25.8042 8.27896C25.9282 7.81479 26.1425 7.37963 26.4348 6.99838C26.7272 6.61714 27.0919 6.29729 27.508 6.05716C27.9241 5.81702 28.3835 5.66131 28.8599 5.59893C29.3362 5.53655 29.8202 5.56873 30.2841 5.69364C30.7482 5.81758 31.1832 6.03181 31.5644 6.32405C31.9456 6.6163 32.2654 6.98083 32.5056 7.3968C32.7457 7.81276 32.9015 8.272 32.964 8.74823C33.0265 9.22446 32.9945 9.70834 32.8698 10.1722L30.4959 19.032L30.4962 19.0306Z" fill="#2EB67D"/>
<path fill-rule="evenodd" clip-rule="evenodd" d="M23.1708 32.2409C23.6349 32.3648 24.0699 32.579 24.4511 32.8713C24.8323 33.1635 25.1521 33.5281 25.3922 33.944C25.6324 34.36 25.7882 34.8192 25.8507 35.2955C25.9132 35.7717 25.8812 36.2556 25.7565 36.7194C25.6327 37.1836 25.4186 37.6189 25.1264 38.0002C24.8342 38.3816 24.4696 38.7016 24.0536 38.9419C23.6376 39.1822 23.1782 39.3381 22.7019 39.4007C22.2256 39.4632 21.7415 39.4312 21.2776 39.3065C20.8134 39.1825 20.3782 38.9682 19.997 38.6759C19.6158 38.3835 19.2959 38.0189 19.0558 37.6027C18.8156 37.1866 18.6599 36.7272 18.5975 36.2509C18.5352 35.7745 18.5674 35.2905 18.6923 34.8266L19.6387 31.2944L23.1708 32.2409ZM23.644 30.4748C23.18 30.3509 22.7449 30.1366 22.3637 29.8444C21.9826 29.5521 21.6628 29.1876 21.4226 28.7716C21.1824 28.3557 21.0266 27.8964 20.9641 27.4202C20.9016 26.944 20.9336 26.4601 21.0583 25.9962C21.1823 25.5322 21.3965 25.0971 21.6887 24.716C21.981 24.3348 22.3455 24.015 22.7615 23.7748C23.1775 23.5347 23.6367 23.3789 24.1129 23.3164C24.5892 23.2539 25.073 23.2859 25.5369 23.4105L34.3953 25.7842C34.8594 25.9081 35.2944 26.1223 35.6756 26.4146C36.0568 26.7068 36.3766 27.0713 36.6167 27.4873C36.8569 27.9033 37.0127 28.3625 37.0752 28.8387C37.1377 29.315 37.1057 29.7989 36.981 30.2627C36.8571 30.7268 36.6428 31.1618 36.3506 31.543C36.0583 31.9242 35.6938 32.244 35.2778 32.4841C34.8619 32.7243 34.4026 32.8801 33.9264 32.9426C33.4502 33.0051 32.9663 32.9731 32.5024 32.8484L23.644 30.4748Z" fill="#ECB22E"/>
</g>
<defs>
<clipPath id="clip0_1_221">
<rect x="9.03516" width="34.9091" height="34.9091" rx="17.4545" transform="rotate(15 9.03516 0)" fill="white"/>
</clipPath>
</defs>
</svg>
